<svg xmlns="http://www.w3.org/2000/svg" width="320" height="640" viewBox="0 0 320 640" role="img" aria-label="Sovara history view screen placeholder">
  <rect width="320" height="640" rx="32" fill="#161b22"/>
  <rect x="1" y="1" width="318" height="638" rx="31" fill="none" stroke="#30363d" stroke-width="2"/>
  <rect x="120" y="12" width="80" height="8" rx="4" fill="#30363d"/>
  <!-- Header bar -->
  <rect x="16" y="52" width="288" height="48" rx="10" fill="#0a0e14"/>
  <rect x="24" y="62" width="100" height="14" rx="4" fill="#e6edf3"/>
  <rect x="24" y="78" width="60" height="8" rx="3" fill="#8b949e"/>
  <rect x="252" y="60" width="40" height="28" rx="6" fill="#39c5cf" opacity="0.15" stroke="#39c5cf" stroke-width="1"/>
  <rect x="258" y="69" width="28" height="10" rx="3" fill="#39c5cf"/>
  <!-- Filters row -->
  <rect x="16" y="112" width="80" height="28" rx="14" fill="#39c5cf" opacity="0.12" stroke="#39c5cf" stroke-width="1"/>
  <rect x="30" y="120" width="52" height="12" rx="4" fill="#39c5cf"/>
  <rect x="104" y="112" width="72" height="28" rx="14" fill="#30363d"/>
  <rect x="116" y="120" width="48" height="12" rx="4" fill="#8b949e"/>
  <rect x="184" y="112" width="60" height="28" rx="14" fill="#30363d"/>
  <rect x="194" y="120" width="40" height="12" rx="4" fill="#8b949e"/>
  <rect x="252" y="112" width="52" height="28" rx="14" fill="#30363d"/>
  <rect x="260" y="120" width="36" height="12" rx="4" fill="#8b949e"/>
  <!-- Date header -->
  <rect x="16" y="156" width="80" height="10" rx="3" fill="#30363d"/>
  <!-- History rows - today -->
  <rect x="16" y="176" width="288" height="52" rx="8" fill="#0a0e14" stroke="#30363d" stroke-width="1"/>
  <circle cx="40" cy="202" r="10" fill="#f78166" opacity="0.15"/>
  <circle cx="40" cy="202" r="5" fill="#f78166"/>
  <rect x="58" y="190" width="140" height="11" rx="3" fill="#e6edf3"/>
  <rect x="58" y="207" width="100" height="9" rx="3" fill="#8b949e"/>
  <rect x="230" y="194" width="64" height="10" rx="3" fill="#30363d"/>
  <rect x="16" y="236" width="288" height="52" rx="8" fill="#0a0e14" stroke="#30363d" stroke-width="1"/>
  <circle cx="40" cy="262" r="10" fill="#39c5cf" opacity="0.15"/>
  <circle cx="40" cy="262" r="5" fill="#39c5cf"/>
  <rect x="58" y="250" width="110" height="11" rx="3" fill="#e6edf3"/>
  <rect x="58" y="267" width="80" height="9" rx="3" fill="#8b949e"/>
  <rect x="230" y="254" width="64" height="10" rx="3" fill="#30363d"/>
  <rect x="16" y="296" width="288" height="52" rx="8" fill="#0a0e14" stroke="#30363d" stroke-width="1"/>
  <circle cx="40" cy="322" r="10" fill="#39c5cf" opacity="0.15"/>
  <circle cx="40" cy="322" r="5" fill="#39c5cf"/>
  <rect x="58" y="310" width="160" height="11" rx="3" fill="#e6edf3"/>
  <rect x="58" y="327" width="120" height="9" rx="3" fill="#8b949e"/>
  <rect x="230" y="314" width="64" height="10" rx="3" fill="#30363d"/>
  <!-- Date header yesterday -->
  <rect x="16" y="362" width="100" height="10" rx="3" fill="#30363d"/>
  <rect x="16" y="382" width="288" height="52" rx="8" fill="#0a0e14" stroke="#30363d" stroke-width="1"/>
  <circle cx="40" cy="408" r="10" fill="#f78166" opacity="0.15"/>
  <circle cx="40" cy="408" r="5" fill="#f78166"/>
  <rect x="58" y="396" width="130" height="11" rx="3" fill="#e6edf3"/>
  <rect x="58" y="413" width="90" height="9" rx="3" fill="#8b949e"/>
  <rect x="230" y="400" width="64" height="10" rx="3" fill="#30363d"/>
  <rect x="16" y="442" width="288" height="52" rx="8" fill="#0a0e14" stroke="#30363d" stroke-width="1"/>
  <circle cx="40" cy="468" r="10" fill="#39c5cf" opacity="0.15"/>
  <circle cx="40" cy="468" r="5" fill="#39c5cf"/>
  <rect x="58" y="456" width="120" height="11" rx="3" fill="#e6edf3"/>
  <rect x="58" y="473" width="70" height="9" rx="3" fill="#8b949e"/>
  <rect x="230" y="460" width="64" height="10" rx="3" fill="#30363d"/>
  <!-- Label -->
  <text x="160" y="540" text-anchor="middle" font-family="-apple-system, sans-serif" font-size="11" fill="#8b949e">History view preview</text>
  <rect x="120" y="620" width="80" height="4" rx="2" fill="#30363d"/>
</svg>
