<svg xmlns="http://www.w3.org/2000/svg" width="320" height="640" viewBox="0 0 320 640" role="img" aria-label="Sovara live alert screen placeholder">
  <rect width="320" height="640" rx="32" fill="#161b22"/>
  <rect x="1" y="1" width="318" height="638" rx="31" fill="none" stroke="#30363d" stroke-width="2"/>
  <rect x="120" y="12" width="80" height="8" rx="4" fill="#30363d"/>
  <!-- Status bar - alert dot red -->
  <circle cx="272" cy="52" r="8" fill="#f78166"/>
  <circle cx="272" cy="52" r="4" fill="#f87171"/>
  <!-- Screen content -->
  <rect x="16" y="72" width="288" height="56" rx="10" fill="#0a0e14"/>
  <rect x="24" y="80" width="160" height="12" rx="4" fill="#30363d"/>
  <rect x="24" y="100" width="100" height="8" rx="3" fill="#21262d"/>
  <!-- ALERT CARD -->
  <rect x="16" y="144" width="288" height="112" rx="12" fill="#0a0e14" stroke="#f78166" stroke-width="2"/>
  <circle cx="44" cy="176" r="14" fill="#f78166" opacity="0.15"/>
  <circle cx="44" cy="176" r="7" fill="#f78166"/>
  <rect x="66" y="164" width="120" height="12" rx="3" fill="#e6edf3"/>
  <rect x="66" y="183" width="160" height="9" rx="3" fill="#8b949e"/>
  <rect x="66" y="198" width="120" height="9" rx="3" fill="#8b949e"/>
  <rect x="24" y="220" width="96" height="26" rx="6" fill="#39c5cf" opacity="0.15" stroke="#39c5cf" stroke-width="1"/>
  <rect x="32" y="228" width="80" height="10" rx="3" fill="#39c5cf"/>
  <rect x="132" y="220" width="80" height="26" rx="6" fill="#30363d"/>
  <rect x="140" y="228" width="64" height="10" rx="3" fill="#8b949e"/>
  <!-- Mic wave icon -->
  <g transform="translate(200, 200)">
    <path d="M0-12 Q8-12 8 0 Q8 12 0 12 Q-8 12 -8 0 Q-8-12 0-12Z" fill="none" stroke="#f78166" stroke-width="2"/>
    <path d="M-14 0 Q-14 20 0 20 Q14 20 14 0" fill="none" stroke="#f78166" stroke-width="2"/>
    <line x1="0" y1="20" x2="0" y2="28" stroke="#f78166" stroke-width="2"/>
  </g>
  <!-- History rows -->
  <rect x="16" y="272" width="288" height="44" rx="8" fill="#0a0e14" stroke="#30363d" stroke-width="1"/>
  <circle cx="40" cy="294" r="8" fill="#39c5cf" opacity="0.2"/>
  <circle cx="40" cy="294" r="4" fill="#39c5cf"/>
  <rect x="56" y="285" width="130" height="9" rx="3" fill="#e6edf3"/>
  <rect x="56" y="300" width="90" height="7" rx="2" fill="#8b949e"/>
  <rect x="200" y="288" width="88" height="13" rx="4" fill="#30363d"/>
  <rect x="16" y="323" width="288" height="44" rx="8" fill="#0a0e14" stroke="#30363d" stroke-width="1"/>
  <circle cx="40" cy="345" r="8" fill="#8b949e" opacity="0.2"/>
  <circle cx="40" cy="345" r="4" fill="#8b949e"/>
  <rect x="56" y="336" width="110" height="9" rx="3" fill="#e6edf3"/>
  <rect x="56" y="351" width="80" height="7" rx="2" fill="#8b949e"/>
  <rect x="200" y="339" width="88" height="13" rx="4" fill="#30363d"/>
  <rect x="16" y="374" width="288" height="44" rx="8" fill="#0a0e14" stroke="#30363d" stroke-width="1"/>
  <circle cx="40" cy="396" r="8" fill="#39c5cf" opacity="0.2"/>
  <circle cx="40" cy="396" r="4" fill="#39c5cf"/>
  <rect x="56" y="387" width="150" height="9" rx="3" fill="#e6edf3"/>
  <rect x="56" y="402" width="100" height="7" rx="2" fill="#8b949e"/>
  <rect x="200" y="390" width="88" height="13" rx="4" fill="#30363d"/>
  <!-- Label -->
  <text x="160" y="480" text-anchor="middle" font-family="-apple-system, sans-serif" font-size="11" fill="#8b949e">Live alert preview</text>
  <rect x="120" y="620" width="80" height="4" rx="2" fill="#30363d"/>
</svg>
