<svg xmlns="http://www.w3.org/2000/svg" width="320" height="640" viewBox="0 0 320 640" role="img" aria-label="Sovara app details screen placeholder">
  <rect width="320" height="640" rx="32" fill="#161b22"/>
  <rect x="1" y="1" width="318" height="638" rx="31" fill="none" stroke="#30363d" stroke-width="2"/>
  <rect x="120" y="12" width="80" height="8" rx="4" fill="#30363d"/>
  <!-- Back header -->
  <rect x="16" y="52" width="288" height="44" rx="10" fill="#0a0e14"/>
  <rect x="24" y="62" width="16" height="16" rx="3" fill="#30363d"/>
  <rect x="48" y="64" width="120" height="12" rx="4" fill="#e6edf3"/>
  <!-- App icon + name -->
  <rect x="16" y="108" width="288" height="80" rx="12" fill="#0a0e14" stroke="#30363d" stroke-width="1"/>
  <rect x="32" y="124" width="48" height="48" rx="10" fill="#39c5cf" opacity="0.15" stroke="#39c5cf" stroke-width="1"/>
  <rect x="40" y="133" width="32" height="30" rx="4" fill="#39c5cf" opacity="0.5"/>
  <rect x="90" y="126" width="140" height="14" rx="4" fill="#e6edf3"/>
  <rect x="90" y="148" width="100" height="10" rx="3" fill="#8b949e"/>
  <rect x="90" y="164" width="80" height="10" rx="3" fill="#30363d"/>
  <!-- Sensor badge -->
  <rect x="228" y="124" width="60" height="22" rx="8" fill="#f78166" opacity="0.15" stroke="#f78166" stroke-width="1"/>
  <rect x="234" y="130" width="48" height="10" rx="3" fill="#f78166"/>
  <!-- Details fields -->
  <rect x="16" y="204" width="288" height="36" rx="8" fill="#0a0e14" stroke="#30363d" stroke-width="1"/>
  <rect x="28" y="216" width="60" height="10" rx="3" fill="#8b949e"/>
  <rect x="180" y="216" width="110" height="10" rx="3" fill="#e6edf3"/>
  <rect x="16" y="248" width="288" height="36" rx="8" fill="#0a0e14" stroke="#30363d" stroke-width="1"/>
  <rect x="28" y="260" width="80" height="10" rx="3" fill="#8b949e"/>
  <rect x="200" y="260" width="90" height="10" rx="3" fill="#e6edf3"/>
  <rect x="16" y="292" width="288" height="36" rx="8" fill="#0a0e14" stroke="#30363d" stroke-width="1"/>
  <rect x="28" y="304" width="70" height="10" rx="3" fill="#8b949e"/>
  <rect x="180" y="304" width="110" height="10" rx="3" fill="#e6edf3"/>
  <rect x="16" y="336" width="288" height="36" rx="8" fill="#0a0e14" stroke="#30363d" stroke-width="1"/>
  <rect x="28" y="348" width="90" height="10" rx="3" fill="#8b949e"/>
  <rect x="220" y="348" width="70" height="10" rx="3" fill="#3fb950"/>
  <rect x="16" y="380" width="288" height="36" rx="8" fill="#0a0e14" stroke="#30363d" stroke-width="1"/>
  <rect x="28" y="392" width="100" height="10" rx="3" fill="#8b949e"/>
  <rect x="220" y="392" width="70" height="10" rx="3" fill="#e6edf3"/>
  <!-- Foreground app section -->
  <rect x="16" y="432" width="288" height="60" rx="10" fill="#0a0e14" stroke="#39c5cf" stroke-width="1" stroke-dasharray="4 3"/>
  <rect x="28" y="444" width="140" height="10" rx="3" fill="#8b949e"/>
  <rect x="32" y="462" width="36" height="36" rx="8" fill="#30363d"/>
  <rect x="76" y="464" width="100" height="12" rx="4" fill="#e6edf3"/>
  <rect x="76" y="482" width="70" height="8" rx="3" fill="#8b949e"/>
  <!-- Action buttons -->
  <rect x="16" y="510" width="136" height="40" rx="8" fill="#30363d"/>
  <rect x="30" y="524" width="108" height="12" rx="4" fill="#8b949e"/>
  <rect x="164" y="510" width="140" height="40" rx="8" fill="#f78166" opacity="0.12" stroke="#f78166" stroke-width="1"/>
  <rect x="180" y="524" width="108" height="12" rx="4" fill="#f78166"/>
  <!-- Label -->
  <text x="160" y="580" text-anchor="middle" font-family="-apple-system, sans-serif" font-size="11" fill="#8b949e">App details preview</text>
  <rect x="120" y="620" width="80" height="4" rx="2" fill="#30363d"/>
</svg>
