<svg xmlns="http://www.w3.org/2000/svg" width="1280" height="720" viewBox="0 0 1280 720" role="img" aria-label="Sovara live demo placeholder">
  <rect width="1280" height="720" rx="16" fill="#161b22"/>
  <rect x="1" y="1" width="1278" height="718" rx="15" fill="none" stroke="#30363d" stroke-width="2"/>
  <!-- Simulated status bar -->
  <rect x="0" y="0" width="1280" height="48" rx="0" fill="#0d1117"/>
  <rect x="0" y="0" width="1280" height="16" fill="#0d1117"/>
  <rect x="0" y="32" width="1280" height="16" fill="#0d1117"/>
  <!-- Top bar content -->
  <circle cx="56" cy="24" r="6" fill="#3fb950" opacity="0.8"/>
  <rect x="72" y="18" width="80" height="12" rx="4" fill="#30363d"/>
  <rect x="160" y="18" width="120" height="12" rx="4" fill="#30363d"/>
  <!-- Right side status -->
  <rect cx="1180" cy="24" x="1140" y="16" width="40" height="12" rx="4" fill="#30363d"/>
  <rect x="1188" y="16" width="60" height="12" rx="4" fill="#30363d"/>
  <!-- Main content area -->
  <rect x="40" y="72" width="280" height="608" rx="8" fill="#0a0e14" stroke="#30363d" stroke-width="1"/>
  <!-- Sidebar rows -->
  <rect x="56" y="96" width="200" height="10" rx="4" fill="#30363d"/>
  <rect x="56" y="116" width="150" height="8" rx="3" fill="#21262d"/>
  <rect x="56" y="136" width="175" height="8" rx="3" fill="#21262d"/>
  <rect x="56" y="156" width="130" height="8" rx="3" fill="#21262d"/>
  <rect x="56" y="184" width="200" height="10" rx="4" fill="#30363d"/>
  <rect x="56" y="204" width="160" height="8" rx="3" fill="#21262d"/>
  <rect x="56" y="224" width="140" height="8" rx="3" fill="#21262d"/>
  <!-- ALERT CARD - center top -->
  <rect x="360" y="80" width="540" height="120" rx="12" fill="#0a0e14" stroke="#f78166" stroke-width="2"/>
  <circle cx="388" cy="140" r="16" fill="#f78166" opacity="0.15"/>
  <circle cx="388" cy="140" r="8" fill="#f78166"/>
  <rect x="416" y="112" width="200" height="14" rx="4" fill="#e6edf3"/>
  <rect x="416" y="134" width="280" height="10" rx="3" fill="#8b949e"/>
  <rect x="416" y="152" width="180" height="10" rx="3" fill="#8b949e"/>
  <rect x="740" y="116" width="120" height="36" rx="6" fill="#39c5cf" opacity="0.15" stroke="#39c5cf" stroke-width="1"/>
  <rect x="756" y="128" width="88" height="12" rx="3" fill="#39c5cf"/>
  <!-- HISTORY LIST - center middle -->
  <rect x="360" y="220" width="540" height="48" rx="8" fill="#0a0e14" stroke="#30363d" stroke-width="1"/>
  <circle cx="388" cy="244" r="10" fill="#39c5cf" opacity="0.2"/>
  <circle cx="388" cy="244" r="5" fill="#39c5cf"/>
  <rect x="410" y="234" width="150" height="10" rx="3" fill="#e6edf3"/>
  <rect x="410" y="250" width="100" height="8" rx="3" fill="#8b949e"/>
  <rect x="840" y="238" width="50" height="12" rx="4" fill="#3fb950" opacity="0.15"/>
  <rect x="845" y="241" width="40" height="6" rx="2" fill="#3fb950"/>
  <rect x="360" y="276" width="540" height="48" rx="8" fill="#0a0e14" stroke="#30363d" stroke-width="1"/>
  <circle cx="388" cy="300" r="10" fill="#8b949e" opacity="0.2"/>
  <circle cx="388" cy="300" r="5" fill="#8b949e"/>
  <rect x="410" y="290" width="120" height="10" rx="3" fill="#e6edf3"/>
  <rect x="410" y="306" width="80" height="8" rx="3" fill="#8b949e"/>
  <rect x="840" y="294" width="50" height="12" rx="4" fill="#f78166" opacity="0.15"/>
  <rect x="845" y="297" width="40" height="6" rx="2" fill="#f78166"/>
  <rect x="360" y="332" width="540" height="48" rx="8" fill="#0a0e14" stroke="#30363d" stroke-width="1"/>
  <circle cx="388" cy="356" r="10" fill="#39c5cf" opacity="0.2"/>
  <circle cx="388" cy="356" r="5" fill="#39c5cf"/>
  <rect x="410" y="346" width="170" height="10" rx="3" fill="#e6edf3"/>
  <rect x="410" y="362" width="120" height="8" rx="3" fill="#8b949e"/>
  <!-- Right stats panel -->
  <rect x="940" y="80" width="300" height="180" rx="8" fill="#0a0e14" stroke="#30363d" stroke-width="1"/>
  <rect x="960" y="100" width="120" height="12" rx="4" fill="#30363d"/>
  <rect x="960" y="126" width="60" height="36" rx="4" fill="#39c5cf" opacity="0.1"/>
  <text x="990" y="150" text-anchor="middle" font-family="-apple-system, sans-serif" font-size="22" font-weight="800" fill="#39c5cf">3</text>
  <rect x="960" y="170" width="80" height="8" rx="3" fill="#8b949e"/>
  <rect x="1040" y="126" width="60" height="36" rx="4" fill="#f78166" opacity="0.1"/>
  <text x="1070" y="150" text-anchor="middle" font-family="-apple-system, sans-serif" font-size="22" font-weight="800" fill="#f78166">1</text>
  <rect x="1040" y="170" width="80" height="8" rx="3" fill="#8b949e"/>
  <rect x="960" y="196" width="260" height="8" rx="3" fill="#21262d"/>
  <rect x="960" y="212" width="180" height="8" rx="3" fill="#21262d"/>
  <!-- Center label -->
  <text x="640" y="570" text-anchor="middle" font-family="-apple-system, BlinkMacSystemFont, 'Segoe UI', Arial, sans-serif" font-size="18" fill="#8b949e">Sovara live demo — coming</text>
  <text x="640" y="595" text-anchor="middle" font-family="-apple-system, BlinkMacSystemFont, 'Segoe UI', Arial, sans-serif" font-size="13" fill="#30363d">Real screenshots will replace this placeholder</text>
</svg>
